<svg width="115" height="100" viewBox="0 0 115 100" fill="none" xmlns="http://www.w3.org/2000/svg">
<path d="M68.1252 64.936L68.125 64.9352C68.0763 64.6748 67.9362 64.4403 67.73 64.2739C67.5242 64.1078 67.266 64.0204 67.0017 64.0273H47.7067C47.4413 64.0225 47.1828 64.112 46.9772 64.2798C46.7713 64.4479 46.6319 64.6837 46.5837 64.945L46.5836 64.9456L44.8294 74.7579C44.8294 74.7581 44.8294 74.7582 44.8294 74.7583C44.8 74.9162 44.8072 75.0788 44.8505 75.2335C44.8938 75.3884 44.9722 75.5312 45.0795 75.6509L45.0797 75.6511C45.1896 75.7731 45.3254 75.869 45.4772 75.9317L45.5154 75.8393L45.4772 75.9317C45.6281 75.9941 45.791 76.0223 45.954 76.014H68.7546C68.9182 76.0229 69.0816 75.9945 69.2327 75.9312C69.3847 75.8674 69.5202 75.7699 69.6289 75.646C69.7376 75.5221 69.8166 75.3751 69.86 75.2161C69.9033 75.0573 69.91 74.8906 69.8794 74.7289C69.8794 74.7287 69.8793 74.7285 69.8793 74.7284L68.1252 64.936ZM47.3133 73.734L48.6599 66.3073H66.0489L67.3955 73.734H47.3133Z" fill="#2F80ED" stroke="#2F80ED" stroke-width="0.2"/>
<path d="M30.1673 89.6825L30.1677 89.683C30.2771 89.8061 30.4124 89.9033 30.564 89.9676C30.7149 90.0315 30.8781 90.0613 31.0419 90.0546H53.8432C54.007 90.0627 54.1705 90.0338 54.3216 89.9699C54.4735 89.9056 54.6088 89.8077 54.7174 89.6835C54.8259 89.5593 54.9048 89.4121 54.9482 89.253C54.9915 89.094 54.9982 88.9273 54.9678 88.7654C54.9677 88.7652 54.9677 88.7651 54.9677 88.7649L53.2137 78.9745L53.2136 78.9736C53.1646 78.7134 53.0244 78.4793 52.8182 78.3132C52.6124 78.1475 52.3543 78.0605 52.0901 78.0679H32.7954C32.5303 78.0624 32.2718 78.1512 32.0661 78.3185C31.8601 78.4861 31.7205 78.7215 31.6721 78.9826L31.672 78.9832L29.9178 88.7775C29.9177 88.7775 29.9177 88.7776 29.9177 88.7777C29.8884 88.9375 29.8956 89.1019 29.9388 89.2586C29.982 89.4154 30.0601 89.5603 30.1673 89.6825ZM32.4019 87.7746L33.7485 80.3479H51.1372L52.4838 87.7746H32.4019Z" fill="#2F80ED" stroke="#2F80ED" stroke-width="0.2"/>
<path d="M61.4952 78.9826L61.4952 78.9826L61.4951 78.9832L59.7411 88.7944C59.7411 88.7945 59.741 88.7946 59.741 88.7947C59.7116 88.953 59.7188 89.1159 59.7621 89.2709C59.8055 89.4261 59.8838 89.5692 59.9912 89.6893L59.9914 89.6895C60.1011 89.8117 60.2368 89.9079 60.3885 89.9711C60.5394 90.0339 60.7023 90.0624 60.8655 90.0546H83.6663C83.8301 90.0628 83.9937 90.0338 84.1448 89.9699C84.2967 89.9057 84.432 89.8078 84.5406 89.6836C84.6491 89.5594 84.7281 89.4122 84.7715 89.253C84.8148 89.0941 84.8215 88.9273 84.7911 88.7654C84.791 88.7652 84.791 88.7651 84.791 88.7649L83.037 78.9745L83.0368 78.9736C82.9879 78.7134 82.8476 78.4791 82.6413 78.3131C82.4354 78.1474 82.1772 78.0605 81.9131 78.0679H62.6183C62.3532 78.0624 62.0948 78.1513 61.8892 78.3186C61.6832 78.4862 61.5436 78.7215 61.4952 78.9826ZM63.5716 80.3479H80.9603L82.3069 87.7746H62.225L63.5716 80.3479Z" fill="#2F80ED" stroke="#2F80ED" stroke-width="0.2"/>
<path d="M57.3498 55.2127C60.5834 55.2127 63.7444 54.2537 66.433 52.4572C69.1216 50.6607 71.2171 48.1072 72.4546 45.1197C73.692 42.1322 74.0157 38.8449 73.3848 35.6734C72.754 32.5019 71.1968 29.5888 68.9103 27.3023C66.6237 25.0158 63.7105 23.4586 60.5391 22.8278C57.3676 22.197 54.0802 22.5208 51.0928 23.7582C48.1053 24.9957 45.5519 27.0913 43.7554 29.7799C41.9589 32.4686 41 35.6296 41 38.8632C41.0049 43.1979 42.7291 47.3536 45.7942 50.4187C48.8593 53.4838 53.0151 55.2079 57.3498 55.2127ZM57.3498 25.4111C60.0103 25.4112 62.6111 26.2002 64.8233 27.6783C67.0354 29.1565 68.7596 31.2574 69.7777 33.7155C70.7958 36.1735 71.0622 38.8783 70.5431 41.4877C70.024 44.0971 68.7428 46.4941 66.8615 48.3753C64.9802 50.2566 62.5832 51.5378 59.9738 52.0568C57.3644 52.5758 54.6596 52.3094 52.2016 51.2913C49.7435 50.2731 47.6426 48.5489 46.1645 46.3367C44.6864 44.1246 43.8974 41.5238 43.8974 38.8632C43.9013 35.2966 45.3199 31.8772 47.8418 29.3552C50.3638 26.8332 53.7832 25.4146 57.3498 25.4106V25.4111Z" fill="#FFBD00"/>
<path d="M57.3499 45.6256C56.7108 45.6249 56.0982 45.3707 55.6463 44.9189C55.1944 44.467 54.9402 43.8544 54.9394 43.2154C54.9394 42.8312 54.7868 42.4627 54.5151 42.191C54.2434 41.9193 53.8749 41.7667 53.4907 41.7667C53.1065 41.7667 52.738 41.9193 52.4663 42.191C52.1946 42.4627 52.042 42.8312 52.042 43.2154C52.0437 44.4242 52.4573 45.5964 53.2147 46.5386C53.9721 47.4807 55.028 48.1366 56.2083 48.3979V49.4425C56.2083 49.8267 56.3609 50.1952 56.6326 50.4669C56.9043 50.7385 57.2728 50.8912 57.657 50.8912C58.0412 50.8912 58.4097 50.7385 58.6814 50.4669C58.9531 50.1952 59.1057 49.8267 59.1057 49.4425V48.2231C60.2882 47.8085 61.2859 46.9888 61.9221 45.9092C62.5583 44.8296 62.7919 43.5597 62.5816 42.3243C62.3713 41.089 61.7307 39.9679 60.7732 39.1596C59.8156 38.3512 58.603 37.9078 57.3499 37.9078C56.8732 37.9078 56.4071 37.7665 56.0108 37.5017C55.6144 37.2369 55.3054 36.8605 55.123 36.4201C54.9405 35.9797 54.8927 35.4951 54.9857 35.0275C55.0787 34.56 55.3082 34.1305 55.6453 33.7934C55.9823 33.4563 56.4118 33.2267 56.8793 33.1337C57.3469 33.0407 57.8315 33.0884 58.2719 33.2708C58.7123 33.4532 59.0888 33.7622 59.3536 34.1585C59.6184 34.5549 59.7598 35.0209 59.7598 35.4976C59.7598 35.8818 59.9124 36.2503 60.1841 36.522C60.4558 36.7937 60.8243 36.9463 61.2085 36.9463C61.5927 36.9463 61.9612 36.7937 62.2329 36.522C62.5046 36.2503 62.6572 35.8818 62.6572 35.4976C62.6557 34.3547 62.286 33.2427 61.6027 32.3265C60.9195 31.4102 59.9592 30.7386 58.8643 30.4111V29.4018C58.8643 29.0176 58.7116 28.6491 58.4399 28.3774C58.1682 28.1058 57.7998 27.9531 57.4155 27.9531C57.0313 27.9531 56.6628 28.1058 56.3911 28.3774C56.1194 28.6491 55.9668 29.0176 55.9668 29.4018V30.3737C54.725 30.7095 53.6475 31.4848 52.9345 32.5555C52.2215 33.6263 51.9217 34.9195 52.0908 36.1947C52.2599 37.4699 52.8864 38.6403 53.8537 39.4883C54.8211 40.3362 56.0635 40.8039 57.3499 40.8045C57.9891 40.8045 58.6021 41.0584 59.0541 41.5104C59.5061 41.9624 59.76 42.5754 59.76 43.2147C59.76 43.8539 59.5061 44.4669 59.0541 44.9189C58.6021 45.3709 57.9891 45.6248 57.3499 45.6248V45.6256Z" fill="#FFBD00"/>
<rect x="1.25" y="15.25" width="112.5" height="83.5" rx="3.75" stroke="#2F80ED" stroke-width="2.5"/>
<mask id="path-7-inside-1_1_543" fill="white">
<rect x="36" width="43.0478" height="15.7842" rx="2"/>
</mask>
<rect x="36" width="43.0478" height="15.7842" rx="2" stroke="#2F80ED" stroke-width="5" mask="url(#path-7-inside-1_1_543)"/>
</svg>
