<svg width="110" height="100" viewBox="0 0 110 100" fill="none" xmlns="http://www.w3.org/2000/svg">
<path d="M87.2504 56.0514C87.5779 56.0207 87.8826 55.8703 88.1061 55.6289C88.3296 55.3876 88.4562 55.0722 88.4616 54.7433V45.2569C88.4561 44.9277 88.3293 44.6122 88.1055 44.3708C87.8817 44.1294 87.5766 43.9791 87.2488 43.9488L81.1252 43.3574C80.4664 40.7746 79.422 38.3059 78.0272 36.0344L81.91 31.347C82.1181 31.0957 82.2252 30.776 82.2106 30.4501C82.1959 30.1242 82.0606 29.8154 81.831 29.5838L75.2058 22.8913C74.9747 22.6577 74.6645 22.5191 74.3363 22.5029C74.0081 22.4867 73.6857 22.594 73.4327 22.8037L68.7357 26.699C66.4564 25.3186 63.988 24.2782 61.4083 23.6106L60.8169 17.4862C60.7867 17.158 60.6368 16.8524 60.3956 16.6278C60.1544 16.4032 59.8389 16.2753 59.5095 16.2686H50.0092C49.6797 16.2751 49.3641 16.4028 49.1228 16.6273C48.8815 16.8518 48.7314 17.1573 48.7011 17.4855L48.1097 23.5955C45.5231 24.2502 43.0501 25.2914 40.7742 26.6839L36.0868 22.8002C35.8348 22.5916 35.514 22.4846 35.1871 22.4999C34.8603 22.5153 34.551 22.6521 34.3196 22.8834L27.6134 29.5776C27.3814 29.8091 27.2442 30.1189 27.2287 30.4462C27.2133 30.7736 27.3207 31.095 27.53 31.3472L31.4211 36.0405C30.0417 38.3166 29 40.7809 28.3286 43.3563L22.1997 43.9477C21.873 43.9787 21.5694 44.1297 21.3476 44.3715C21.1257 44.6133 21.0014 44.9287 20.9985 45.2569V54.7433C21.0015 55.0713 21.126 55.3866 21.3478 55.6282C21.5697 55.8697 21.8732 56.0205 22.1997 56.0514L28.3174 56.6428C28.9754 59.2255 30.0188 61.6942 31.4126 63.9658L27.5284 68.6532C27.3195 68.9055 27.2122 69.2267 27.2278 69.554C27.2434 69.8812 27.3806 70.1908 27.6125 70.4221L34.319 77.1148C34.5506 77.3459 34.8601 77.4823 35.187 77.4974C35.5138 77.5124 35.8346 77.405 36.0864 77.1961L40.7832 73.3018C43.0624 74.6822 45.5308 75.7226 48.1104 76.3902L48.7018 82.5147C48.732 82.8428 48.8821 83.1482 49.1232 83.3727C49.3644 83.5972 49.6798 83.725 50.0092 83.7317H59.5095C59.839 83.7252 60.1546 83.5975 60.3959 83.373C60.6372 83.1485 60.7873 82.8429 60.8175 82.5147L61.4089 76.4036C63.9955 75.7489 66.4685 74.7078 68.7444 73.3152L73.4329 77.1989C73.685 77.4075 74.0058 77.5146 74.3326 77.4992C74.6594 77.4838 74.9687 77.347 75.2001 77.1157L81.9061 70.4224C82.1381 70.1909 82.2753 69.8811 82.2907 69.5537C82.3061 69.2263 82.1986 68.905 81.9893 68.6528L78.0982 63.9595C79.4819 61.6833 80.528 59.2183 81.2039 56.6417L87.2504 56.0514ZM78.8492 55.1398C78.1949 58.0627 77.019 60.8436 75.378 63.3493C75.2251 63.5842 75.1514 63.8618 75.1675 64.1415C75.1836 64.4213 75.2887 64.6886 75.4675 64.9044L79.2006 69.4067L74.1892 74.4088L69.685 70.674C69.4679 70.494 69.1987 70.3887 68.9171 70.3734C68.6355 70.3582 68.3565 70.434 68.1213 70.5895C65.6258 72.2429 62.8421 73.4134 59.9149 74.0402C59.6402 74.1052 59.3928 74.2549 59.2076 74.468C59.0225 74.6811 58.9088 74.9469 58.8828 75.228L58.3166 81.1032H51.2023L50.6359 75.228C50.6094 74.9483 50.4951 74.6841 50.3093 74.4733C50.1235 74.2625 49.8758 74.1159 49.6016 74.0544C46.675 73.4051 43.8904 72.2305 41.3829 70.5875C41.1485 70.4362 40.8721 70.3633 40.5935 70.3796C40.315 70.3958 40.0489 70.5002 39.8337 70.6778L35.3296 74.4106L30.3183 69.4084L34.0513 64.9057C34.2317 64.6882 34.3372 64.4182 34.3521 64.136C34.3669 63.8538 34.2904 63.5743 34.1339 63.339C32.4776 60.8482 31.303 58.0689 30.6709 55.1453C30.6087 54.8724 30.4621 54.6262 30.2518 54.4415C30.0415 54.2569 29.7783 54.1433 29.4998 54.1169L23.627 53.5502V46.45L29.4998 45.8835C29.7766 45.8569 30.038 45.7438 30.2468 45.5601C30.4556 45.3764 30.6012 45.1316 30.6628 44.8604C31.3181 41.9373 32.4951 39.1563 34.1374 36.651C34.2905 36.4163 34.3646 36.1388 34.3488 35.859C34.3331 35.5792 34.2283 35.3118 34.0498 35.0958L30.3174 30.5935L35.3292 25.5923L39.8334 29.327C40.0505 29.5071 40.3198 29.6125 40.6014 29.6277C40.8831 29.643 41.1621 29.5672 41.3974 29.4116C43.8931 27.7577 46.677 26.5869 49.6046 25.96C49.8793 25.8949 50.1266 25.7453 50.3117 25.5322C50.4968 25.3191 50.6104 25.0533 50.6365 24.7722L51.2023 18.897H58.3166L58.8828 24.7722C58.9094 25.0519 59.0237 25.316 59.2095 25.5268C59.3953 25.7376 59.6429 25.8843 59.9171 25.9458C62.8435 26.5952 65.6278 27.7698 68.1351 29.4127C68.3694 29.564 68.6459 29.6368 68.9243 29.6206C69.2028 29.6043 69.4689 29.4999 69.6841 29.3224L74.1827 25.5945L79.1226 30.5861L75.3852 35.0945C75.2048 35.312 75.0994 35.5819 75.0845 35.8641C75.0696 36.1463 75.1461 36.4257 75.3026 36.661C76.9589 39.1519 78.1335 41.9312 78.7656 44.8549C78.8301 45.1288 78.979 45.3754 79.1912 45.5601C79.4034 45.7448 79.6682 45.8583 79.9484 45.8844L85.8332 46.45V53.5516L80.0287 54.118C79.7502 54.1443 79.4869 54.257 79.2755 54.4401C79.064 54.6233 78.915 54.8679 78.8492 55.1398Z" fill="#2F80ED"/>
<path d="M54.7251 29.2834C50.6289 29.2891 46.6264 30.5089 43.2233 32.7888C39.8203 35.0686 37.1695 38.3061 35.6059 42.092C34.0423 45.878 33.6361 50.0425 34.4387 54.0593C35.2413 58.076 37.2166 61.7647 40.115 64.6591C43.0134 67.5535 46.7048 69.5237 50.7227 70.3208C54.7405 71.1178 58.9045 70.7058 62.6883 69.137C66.4721 67.5682 69.7059 64.9129 71.981 61.5067C74.2561 58.1004 75.4704 54.0962 75.4704 50.0001C75.4604 44.5038 73.2706 39.2359 69.3814 35.3522C65.4923 31.4684 60.2214 29.2859 54.7251 29.2834ZM54.7251 68.0883C51.1488 68.0826 47.6544 67.017 44.6836 65.026C41.7128 63.0349 39.3989 60.208 38.0342 56.9023C36.6696 53.5966 36.3154 49.9606 37.0166 46.4537C37.7178 42.9468 39.4428 39.7265 41.9736 37.1997C44.5044 34.6729 47.7275 32.953 51.2355 32.2574C54.7435 31.5618 58.3789 31.9216 61.6824 33.2915C64.986 34.6614 67.8093 36.9798 69.7956 39.9538C71.7818 42.9278 72.842 46.4238 72.842 50.0001C72.8327 54.7995 70.9201 59.3993 67.5237 62.7903C64.1273 66.1813 59.5245 68.0866 54.7251 68.0883Z" fill="#FFBD00"/>
<path d="M54.7301 43.7136C55.3867 43.7143 56.0162 43.9755 56.4805 44.4398C56.9448 44.9041 57.206 45.5336 57.2067 46.1902C57.2067 46.5388 57.3452 46.873 57.5916 47.1195C57.8381 47.366 58.1724 47.5044 58.5209 47.5044C58.8695 47.5044 59.2038 47.366 59.4502 47.1195C59.6967 46.873 59.8351 46.5388 59.8351 46.1902C59.8338 45.1045 59.4869 44.0474 58.8448 43.172C58.2026 42.2965 57.2985 41.6482 56.2633 41.3208V40.3623C56.2633 40.0138 56.1249 39.6795 55.8784 39.433C55.6319 39.1866 55.2977 39.0481 54.9491 39.0481C54.6006 39.0481 54.2663 39.1866 54.0198 39.433C53.7734 39.6795 53.6349 40.0138 53.6349 40.3623V41.2047C52.4058 41.4748 51.3197 42.1894 50.5852 43.2113C49.8507 44.2332 49.5196 45.4903 49.6554 46.7415C49.7911 47.9926 50.3843 49.1494 51.3209 49.99C52.2575 50.8305 53.4716 51.2954 54.7301 51.2955C55.2199 51.2955 55.6987 51.4408 56.106 51.7129C56.5133 51.985 56.8307 52.3718 57.0182 52.8244C57.2056 53.2769 57.2547 53.7749 57.1591 54.2553C57.0636 54.7357 56.8277 55.177 56.4813 55.5234C56.135 55.8697 55.6937 56.1056 55.2132 56.2012C54.7328 56.2967 54.2349 56.2477 53.7823 56.0603C53.3298 55.8728 52.943 55.5554 52.6708 55.1481C52.3987 54.7408 52.2534 54.262 52.2534 53.7721C52.2534 53.4236 52.115 53.0893 51.8685 52.8428C51.622 52.5964 51.2878 52.4579 50.9392 52.4579C50.5907 52.4579 50.2564 52.5964 50.0099 52.8428C49.7635 53.0893 49.625 53.4236 49.625 53.7721C49.6265 54.8968 49.9987 55.9895 50.684 56.8813C51.3693 57.773 52.3295 58.4139 53.4159 58.7048V60.0756C53.4159 60.4241 53.5543 60.7584 53.8008 61.0048C54.0472 61.2513 54.3815 61.3898 54.7301 61.3898C55.0786 61.3898 55.4129 61.2513 55.6594 61.0048C55.9058 60.7584 56.0443 60.4241 56.0443 60.0756V58.7048C57.2417 58.3859 58.2823 57.6423 58.9719 56.6128C59.6615 55.5832 59.9531 54.3379 59.7922 53.1092C59.6313 51.8805 59.029 50.7523 58.0976 49.9349C57.1662 49.1176 55.9693 48.6669 54.7301 48.6671C54.0772 48.6609 53.4532 48.3973 52.9937 47.9335C52.5343 47.4696 52.2765 46.8432 52.2765 46.1903C52.2765 45.5374 52.5343 44.911 52.9937 44.4472C53.4532 43.9833 54.0772 43.7197 54.7301 43.7136Z" fill="#FFBD00"/>
<path d="M100.793 45.5674C100.67 45.4188 100.515 45.2991 100.34 45.217C100.166 45.1349 99.9748 45.0923 99.7817 45.0923C99.5885 45.0923 99.3977 45.1349 99.2229 45.217C99.0481 45.2991 98.8935 45.4188 98.7702 45.5674L90.403 55.6551C90.2433 55.8546 90.1421 56.0945 90.1107 56.3481C90.0793 56.6017 90.1189 56.859 90.2251 57.0914C90.3292 57.3217 90.4958 57.5182 90.706 57.6585C90.9161 57.7989 91.1615 57.8775 91.4141 57.8854H98.027C96.5212 69.036 90.9577 79.2403 82.4005 86.5465C74.349 93.4503 64.2326 97.3905 54.6454 97.3905C48.3917 97.3905 41.8537 95.6958 35.7395 92.5075C29.391 89.191 23.8851 84.4666 19.6427 78.6955C19.544 78.5487 19.4167 78.4233 19.2684 78.3269C19.12 78.2304 18.9537 78.1649 18.7795 78.1343C18.6052 78.1037 18.4266 78.1085 18.2542 78.1486C18.0819 78.1887 17.9194 78.2632 17.7766 78.3676C17.6337 78.472 17.5134 78.6042 17.4229 78.7562C17.3323 78.9082 17.2734 79.0769 17.2497 79.2523C17.2259 79.4276 17.2378 79.6059 17.2847 79.7766C17.3315 79.9472 17.4123 80.1066 17.5223 80.2452C22.0035 86.3394 27.8191 91.3279 34.5243 94.8293C41.0126 98.2123 47.9702 100 54.6454 100C64.8507 100 75.5907 95.848 84.1114 88.5419C93.2281 80.7184 99.1283 69.7987 100.676 57.8854H108.148C108.4 57.8766 108.645 57.7978 108.855 57.6578C109.065 57.5177 109.231 57.322 109.336 57.0925C109.442 56.863 109.481 56.6087 109.449 56.3583C109.418 56.1078 109.318 55.871 109.159 55.6744L100.793 45.5674ZM94.2116 55.2569L99.7808 48.5422L105.35 55.2569H94.2116Z" fill="#2F80ED"/>
<path d="M19.2351 42.9087C19.131 42.6783 18.9643 42.4818 18.754 42.3414C18.5438 42.2011 18.2984 42.1225 18.0457 42.1147H11.4328C12.9386 30.964 18.5021 20.7598 27.0592 13.4536C35.1108 6.54984 45.2272 2.6096 54.8144 2.6096C61.0681 2.6096 67.6061 4.30428 73.7203 7.49257C80.0687 10.8091 85.5746 15.5335 89.817 21.3045C89.9157 21.4514 90.0431 21.5768 90.1914 21.6732C90.3397 21.7697 90.506 21.8352 90.6803 21.8658C90.8545 21.8964 91.0332 21.8915 91.2055 21.8515C91.3779 21.8114 91.5403 21.7369 91.6832 21.6325C91.826 21.5281 91.9463 21.3959 92.0369 21.2439C92.1274 21.0919 92.1863 20.9231 92.2101 20.7478C92.2338 20.5725 92.2219 20.3942 92.1751 20.2235C92.1282 20.0529 92.0474 19.8935 91.9375 19.7549C87.4563 13.6607 81.6407 8.6722 74.9355 5.17078C68.4472 1.78777 61.4895 0 54.8144 0C44.6091 0 33.8691 4.15205 25.3484 11.4582C16.2316 19.2817 10.3315 30.2014 8.78397 42.1147H1.31222C1.05996 42.1235 0.81513 42.2023 0.605139 42.3423C0.395148 42.4824 0.228294 42.6781 0.123269 42.9076C0.0182428 43.1371 -0.0208071 43.3913 0.0104934 43.6418C0.0417938 43.8923 0.142208 44.1291 0.300488 44.3257L8.66766 54.4232C8.79021 54.5727 8.94428 54.6933 9.11885 54.7763C9.29342 54.8593 9.48417 54.9027 9.67747 54.9034C9.87077 54.9041 10.0618 54.862 10.237 54.7803C10.4121 54.6985 10.5671 54.5791 10.6907 54.4305L19.0579 44.3248C19.2173 44.1291 19.3184 43.8926 19.3497 43.6422C19.3811 43.3918 19.3413 43.1376 19.2351 42.9087ZM9.67895 51.4581L4.11062 44.7431H15.2482L9.67895 51.4581Z" fill="#2F80ED"/>
</svg>
