<svg width="36" height="36" viewBox="0 0 36 36" fill="none" xmlns="http://www.w3.org/2000/svg">
<path d="M13.0257 36C7.66778 35.9692 3.23584 25.0319 3.23584 19.4618C3.23584 10.3631 10.0614 8.37115 12.692 8.37115C13.8774 8.37115 15.1433 8.83669 16.2598 9.24865C17.0405 9.53602 17.848 9.83266 18.2971 9.83266C18.5659 9.83266 19.1993 9.58031 19.7586 9.3589C20.9513 8.88408 22.4354 8.29395 24.1637 8.29395C24.1668 8.29395 24.171 8.29395 24.174 8.29395C25.4645 8.29395 29.3774 8.57716 31.7298 12.1099L32.2809 12.938L31.4878 13.5364C30.3549 14.3913 28.2877 15.9507 28.2877 19.0396C28.2877 22.698 30.6288 24.105 31.7535 24.7817C32.25 25.0804 32.7639 25.3883 32.7639 26.0619C32.7639 26.5017 29.2538 35.9455 24.1565 35.9455C22.9092 35.9455 22.0276 35.5706 21.2499 35.2399C20.463 34.9052 19.7842 34.6168 18.6626 34.6168C18.0941 34.6168 17.3751 34.8856 16.614 35.171C15.5739 35.5592 14.3965 36 13.0607 36H13.0257Z" fill="#BDBDBD"/>
<path d="M24.7037 0C24.8364 4.78659 21.4133 8.10731 17.9941 7.89905C17.4307 4.07918 21.4129 0 24.7037 0Z" fill="#BDBDBD"/>
</svg>
