<svg width="252" height="51" viewBox="0 0 252 51" fill="none" xmlns="http://www.w3.org/2000/svg">
<path d="M1 50L2.89394 43.7904C4.78788 37.5807 8.57576 25.1615 12.3636 22.4342C16.1515 19.707 19.9394 26.6717 23.7273 29.1285C27.5152 31.5852 31.303 29.534 35.0909 26.4005C38.8788 23.2669 42.6667 19.051 46.4545 17.9319C50.2424 16.8128 54.0303 18.7905 57.8182 24.3225C61.6061 29.8546 65.3939 38.9411 69.1818 39.6894C72.9697 40.4378 76.7576 32.8481 80.5455 27.5898C84.3333 22.3314 88.1212 19.4045 91.9091 21.9103C95.697 24.4161 99.4848 32.3545 103.273 34.7435C107.061 37.1325 110.848 33.9721 114.636 27.7227C118.424 21.4733 122.212 12.1349 126 7.88701C129.788 3.63915 133.576 4.48183 137.364 10.6061C141.152 16.7303 144.939 28.1362 148.727 28.0107C152.515 27.8853 156.303 16.2286 160.091 12.2425C163.879 8.25642 167.667 11.941 171.455 12.2014C175.242 12.4619 179.03 9.29821 182.818 5.84912C186.606 2.40002 190.394 -1.33452 194.182 2.86099C197.97 7.0565 201.758 19.1821 205.545 24.6264C209.333 30.0708 213.121 28.8339 216.909 23.8716C220.697 18.9094 224.485 10.2217 228.273 6.09863C232.061 1.97558 235.848 2.41715 239.636 6.13008C243.424 9.84301 247.212 16.8273 249.106 20.3195L251 23.8116" stroke="#2F80ED" stroke-width="2"/>
</svg>
