<svg width="32" height="36" viewBox="0 0 32 36" fill="none" xmlns="http://www.w3.org/2000/svg">
<path d="M2.99769 11.6611C2.37741 11.6611 1.85113 11.8774 1.41852 12.3101C0.985903 12.7427 0.769531 13.2618 0.769531 13.8677V23.1705C0.769531 23.7916 0.985838 24.3174 1.41852 24.7501C1.85113 25.1827 2.37741 25.3991 2.99769 25.3991C3.61752 25.3991 4.14061 25.1828 4.56652 24.7501C4.99158 24.3175 5.2047 23.7916 5.2047 23.1705V13.8677C5.2047 13.2617 4.98839 12.7427 4.55571 12.3101C4.12303 11.8774 3.60359 11.6611 2.99769 11.6611Z" fill="#BDBDBD"/>
<path d="M20.9113 3.30981L22.4473 0.476147C22.5482 0.288546 22.5123 0.144689 22.3394 0.0435333C22.1518 -0.0436924 22.0076 0.000506295 21.9068 0.173005L20.3492 3.02932C18.9787 2.42336 17.5291 2.11983 16.0005 2.11983C14.4716 2.11983 13.0219 2.42343 11.6519 3.02932L10.0942 0.173005C9.99302 0.000506295 9.84883 -0.0433018 9.66162 0.0435333C9.48834 0.145145 9.45248 0.288546 9.5537 0.476147L11.0898 3.30981C9.53222 4.10415 8.29166 5.21042 7.36863 6.63103C6.4456 8.05242 5.98389 9.60568 5.98389 11.2936H25.9954C25.9954 9.60607 25.5336 8.05274 24.6107 6.63103C23.6876 5.21042 22.4542 4.10415 20.9113 3.30981ZM12.0303 7.43142C11.8642 7.59793 11.6658 7.6808 11.4352 7.6808C11.2041 7.6808 11.0097 7.59793 10.8511 7.43142C10.6926 7.26569 10.6133 7.06807 10.6133 6.83666C10.6133 6.60603 10.6926 6.40802 10.8511 6.2419C11.0097 6.07617 11.2045 5.9933 11.4352 5.9933C11.6658 5.9933 11.8642 6.07617 12.0303 6.2419C12.196 6.40841 12.2793 6.60603 12.2793 6.83666C12.2788 7.06768 12.1957 7.26569 12.0303 7.43142ZM21.1491 7.43142C20.9902 7.59793 20.7953 7.6808 20.5651 7.6808C20.3339 7.6808 20.1356 7.59793 19.9698 7.43142C19.8038 7.26569 19.7209 7.06807 19.7209 6.83666C19.7209 6.60603 19.8038 6.40802 19.9698 6.2419C20.1356 6.07617 20.3339 5.9933 20.5651 5.9933C20.7957 5.9933 20.9901 6.07617 21.1491 6.2419C21.3078 6.40841 21.3869 6.60603 21.3869 6.83666C21.3869 7.06768 21.3077 7.26569 21.1491 7.43142Z" fill="#BDBDBD"/>
<path d="M6.06982 26.4806C6.06982 27.1446 6.30045 27.7068 6.76177 28.1681C7.22348 28.6294 7.78563 28.8601 8.44926 28.8601H10.0503L10.0722 33.7716C10.0722 34.3919 10.2886 34.9185 10.7212 35.3512C11.1538 35.7839 11.6733 36.0002 12.2788 36.0002C12.8987 36.0002 13.4253 35.7839 13.858 35.3512C14.2907 34.9185 14.507 34.3919 14.507 33.7716V28.8605H17.4924V33.7716C17.4924 34.3919 17.7087 34.9185 18.1413 35.3512C18.574 35.7839 19.1002 36.0002 19.7205 36.0002C20.3404 36.0002 20.867 35.7839 21.2997 35.3512C21.7324 34.9185 21.9486 34.3919 21.9486 33.7716V28.8605H23.5713C24.2202 28.8605 24.7751 28.6298 25.2373 28.1685C25.6985 27.7072 25.9293 27.145 25.9293 26.481V12.0718H6.06982V26.4806Z" fill="#BDBDBD"/>
<path d="M29.003 11.6611C28.397 11.6611 27.878 11.8743 27.4453 12.2993C27.0127 12.7252 26.7964 13.2483 26.7964 13.8677V23.1705C26.7964 23.7916 27.0126 24.3174 27.4453 24.7501C27.878 25.1828 28.3974 25.3991 29.003 25.3991C29.6229 25.3991 30.1495 25.1828 30.5822 24.7501C31.0149 24.3174 31.2311 23.7916 31.2311 23.1705V13.8677C31.2311 13.2482 31.0149 12.7252 30.5822 12.2993C30.1495 11.8743 29.6229 11.6611 29.003 11.6611Z" fill="#BDBDBD"/>
</svg>
