<svg width="252" height="51" viewBox="0 0 252 51" fill="none" xmlns="http://www.w3.org/2000/svg">
<path d="M1 50L3.08333 48.5757C5.16667 47.1513 9.33333 44.3026 13.5 44.0058C17.6667 43.709 21.8333 45.964 26 47.6042C30.1667 49.2445 34.3333 50.2699 38.5 47.5158C42.6667 44.7617 46.8333 38.2281 51 34.0064C55.1667 29.7846 59.3333 27.8747 63.5 27.9675C67.6667 28.0604 71.8333 30.1558 76 27.9226C80.1667 25.6894 84.3333 19.1276 88.5 21.9773C92.6667 24.8271 96.8333 37.0885 101 36.7955C105.167 36.5026 109.333 23.6554 113.5 17.2381C117.667 10.8208 121.833 10.8333 126 11.2292C130.167 11.6251 134.333 12.4044 138.5 16.4337C142.667 20.4631 146.833 27.7425 151 27.7103C155.167 27.6782 159.333 20.3344 163.5 16.9646C167.667 13.5948 171.833 14.199 176 16.9473C180.167 19.6955 184.333 24.5878 188.5 29.7375C192.667 34.8872 196.833 40.2943 201 41.04C205.167 41.7856 209.333 37.8699 213.5 30.9312C217.667 23.9925 221.833 14.0309 226 15.1908C230.167 16.3507 234.333 28.6321 238.5 28.1206C242.667 27.609 246.833 14.3045 248.917 7.65226L251 1" stroke="#2F80ED" stroke-width="2"/>
</svg>
