<svg width="252" height="51" viewBox="0 0 252 51" fill="none" xmlns="http://www.w3.org/2000/svg">
<path d="M1 20.8524L3.08333 25.1859C5.16667 29.5193 9.33333 38.1862 13.5 42.3576C17.6667 46.529 21.8333 46.2049 26 42.7802C30.1667 39.3555 34.3333 32.8301 38.5 32.0771C42.6667 31.3242 46.8333 36.3437 51 38.0882C55.1667 39.8328 59.3333 38.3023 63.5 39.7799C67.6667 41.2575 71.8333 45.7431 76 48.0916C80.1667 50.4402 84.3333 50.6518 88.5 48.5556C92.6667 46.4594 96.8333 42.0554 101 37.8023C105.167 33.5491 109.333 29.4468 113.5 26.2948C117.667 23.1428 121.833 20.9411 126 19.5907C130.167 18.2402 134.333 17.7409 138.5 15.4115C142.667 13.0821 146.833 8.92258 151 6.23272C155.167 3.54287 159.333 2.32267 163.5 3.63435C167.667 4.94602 171.833 8.78957 176 14.94C180.167 21.0904 184.333 29.5477 188.5 29.6543C192.667 29.761 196.833 21.517 201 15.5726C205.167 9.6282 209.333 5.98337 213.5 8.57677C217.667 11.1702 221.833 20.0018 226 22.7279C230.167 25.4539 234.333 22.0745 238.5 17.4356C242.667 12.7967 246.833 6.89833 248.917 3.94916L251 1" stroke="#2F80ED" stroke-width="2"/>
</svg>
