<svg width="252" height="51" viewBox="0 0 252 51" fill="none" xmlns="http://www.w3.org/2000/svg">
<path d="M1 50L3.08333 49.352C5.16667 48.7041 9.33333 47.4082 13.5 45.1674C17.6667 42.9266 21.8333 39.741 26 35.7015C30.1667 31.6621 34.3333 26.7688 38.5 28.1227C42.6667 29.4767 46.8333 37.0778 51 40.6722C55.1667 44.2667 59.3333 43.8543 63.5 41.7385C67.6667 39.6228 71.8333 35.8037 76 33.0684C80.1667 30.333 84.3333 28.6815 88.5 30.2183C92.6667 31.7551 96.8333 36.4803 101 34.0638C105.167 31.6472 109.333 22.0889 113.5 17.601C117.667 13.1132 121.833 13.6959 126 11.3425C130.167 8.98906 134.333 3.6996 138.5 2.11667C142.667 0.533737 146.833 2.65733 151 7.67754C155.167 12.6977 159.333 20.6146 163.5 25.3575C167.667 30.1004 171.833 31.6694 176 29.1209C180.167 26.5725 184.333 19.9065 188.5 14.6907C192.667 9.47494 196.833 5.70932 201 3.33405C205.167 0.958777 209.333 -0.0261365 213.5 2.41661C217.667 4.85935 221.833 10.7298 226 10.3442C230.167 9.9587 234.333 3.31725 238.5 3.78058C242.667 4.2439 246.833 11.812 248.917 15.5961L251 19.3801" stroke="#2F80ED" stroke-width="2"/>
</svg>
