<svg width="45" height="39" viewBox="0 0 45 39" stroke="#BD5E5E" fill="none" xmlns="http://www.w3.org/2000/svg" class="hover-stroke-red">
  <path d="M1.37012 5.62028H9.96421" stroke-opacity="0.8" stroke-width="0.8" stroke-miterlimit="10" stroke-linecap="round"/>
  <path d="M25.2917 5.62028H43.6296" stroke-opacity="0.8" stroke-width="0.8" stroke-miterlimit="10" stroke-linecap="round"/>
  <path d="M17.6117 10.3411C20.2189 10.3411 22.3325 8.22752 22.3325 5.62028C22.3325 3.01304 20.2189 0.89946 17.6117 0.89946C15.0045 0.89946 12.8909 3.01304 12.8909 5.62028C12.8909 8.22752 15.0045 10.3411 17.6117 10.3411Z"  stroke-opacity="0.8" stroke-width="0.8" stroke-miterlimit="10" stroke-linecap="round"/>
  <path d="M43.6297 19.437H35.0356" stroke-opacity="0.8" stroke-width="0.8" stroke-miterlimit="10" stroke-linecap="round"/>
  <path d="M19.708 19.437H1.37012" stroke-opacity="0.8" stroke-width="0.8" stroke-miterlimit="10" stroke-linecap="round"/>
  <path d="M27.3883 24.1578C29.9955 24.1578 32.1091 22.0443 32.1091 19.437C32.1091 16.8298 29.9955 14.7162 27.3883 14.7162C24.7811 14.7162 22.6675 16.8298 22.6675 19.437C22.6675 22.0443 24.7811 24.1578 27.3883 24.1578Z" stroke-opacity="0.8" stroke-width="0.8" stroke-miterlimit="10" stroke-linecap="round"/>
  <path d="M43.6298 33.3797H29.001" stroke-opacity="0.8" stroke-width="0.8" stroke-miterlimit="10" stroke-linecap="round"/>
  <path d="M13.6733 33.3797H1.37012" stroke-opacity="0.8" stroke-width="0.8" stroke-miterlimit="10" stroke-linecap="round"/>
  <path d="M21.3536 38.1005C23.9609 38.1005 26.0745 35.987 26.0745 33.3797C26.0745 30.7725 23.9609 28.6589 21.3536 28.6589C18.7464 28.6589 16.6328 30.7725 16.6328 33.3797C16.6328 35.987 18.7464 38.1005 21.3536 38.1005Z"  stroke-opacity="0.8" stroke-width="0.8" stroke-miterlimit="10" stroke-linecap="round"/>
</svg>